<?xml version="1.0" encoding="UTF-8"?>
<!DOCTYPE svg PUBLIC "-//W3C//DTD SVG 1.1//EN" "http://www.w3.org/Graphics/SVG/1.1/DTD/svg11.dtd">
<svg xmlns="http://www.w3.org/2000/svg" version="1.1" width="512px" height="512px" style="shape-rendering:geometricPrecision; text-rendering:geometricPrecision; image-rendering:optimizeQuality; fill-rule:evenodd; clip-rule:evenodd" xmlns:xlink="http://www.w3.org/1999/xlink">
<g><path style="opacity:0.983" fill="#ff8270" d="M 240.5,7.5 C 281.959,5.69217 321.626,13.1922 359.5,30C 371.381,34.1913 375.881,42.358 373,54.5C 369.993,61.7681 364.493,65.7681 356.5,66.5C 342.633,61.0706 328.633,55.904 314.5,51C 230.42,30.2232 158.253,50.7232 98,112.5C 47.4138,171.522 31.7472,238.855 51,314.5C 74.8333,387.667 123.333,436.167 196.5,460C 279.359,480.371 350.859,460.538 411,400.5C 465.624,337.568 481.124,265.901 457.5,185.5C 460.105,171.194 468.438,166.028 482.5,170C 484.754,171.377 486.92,172.877 489,174.5C 497.24,195.699 501.907,217.699 503,240.5C 505.539,340.61 464.705,417.11 380.5,470C 307.915,509.687 233.248,514.02 156.5,483C 83.7762,449.272 36.6095,393.772 15,316.5C -5.7851,218.868 20.0482,136.035 92.5,68C 135.322,32.0949 184.655,11.9282 240.5,7.5 Z"/></g>
<g><path style="opacity:0.988" fill="#dd4751" d="M 482.5,58.5 C 500.414,59.5668 506.58,68.5668 501,85.5C 499.167,87.3333 497.333,89.1667 495.5,91C 414.6,135.193 342.934,191.526 280.5,260C 302.772,292.276 330.772,318.276 364.5,338C 377.452,349.857 378.786,362.857 368.5,377C 360.113,383.558 350.78,385.225 340.5,382C 303.172,361.344 271.339,334.178 245,300.5C 227.849,320.647 211.849,341.647 197,363.5C 182.929,378.274 167.929,379.274 152,366.5C 142.799,354.337 142.132,341.67 150,328.5C 170.433,303.398 191.599,278.898 213.5,255C 192.329,218.492 177.662,179.492 169.5,138C 170.959,120.541 180.459,111.041 198,109.5C 211.709,110.551 220.709,117.551 225,130.5C 231.083,160.082 240.749,188.415 254,215.5C 304.752,167.225 360.252,125.391 420.5,90C 440.822,78.6726 461.489,68.1726 482.5,58.5 Z"/></g>
</svg>
